<svg width="27" height="30" viewBox="0 0 27 30" fill="none" xmlns="http://www.w3.org/2000/svg">
<g clip-path="url(#clip0_0_84)">
<path d="M25.3742 16.8048L23.2367 8.39624C22.6102 5.93287 21.2486 3.76916 19.3682 2.24905C17.4879 0.728937 15.1968 -0.0603421 12.8591 0.00667089C10.5214 0.0736839 8.27133 0.993143 6.46644 2.6189C4.66155 4.24465 3.40547 6.4834 2.89786 8.97928L1.24299 17.116C1.06019 18.0151 1.06442 18.9476 1.25535 19.8447C1.44629 20.7417 1.81906 21.5804 2.34614 22.2989C2.87323 23.0173 3.54116 23.5972 4.30064 23.9956C5.06012 24.394 5.89174 24.6009 6.73411 24.6009H7.98736C8.24557 25.9912 8.93544 27.2411 9.94007 28.1389C10.9447 29.0367 12.2023 29.5272 13.4999 29.5272C14.7974 29.5272 16.055 29.0367 17.0597 28.1389C18.0643 27.2411 18.7542 25.9912 19.0124 24.6009H19.9551C20.8223 24.6009 21.6777 24.3818 22.4546 23.9605C23.2315 23.5393 23.9088 22.9274 24.4335 22.1726C24.9583 21.4178 25.3164 20.5405 25.4798 19.6094C25.6431 18.6782 25.6074 17.7184 25.3754 16.8048H25.3742ZM13.4999 27.0609C12.8043 27.0578 12.1267 26.8198 11.5596 26.3794C10.9925 25.939 10.5637 25.3179 10.3319 24.6009H16.6679C16.436 25.3179 16.0072 25.939 15.4402 26.3794C14.8731 26.8198 14.1954 27.0578 13.4999 27.0609ZM22.6416 20.6832C22.3281 21.1379 21.922 21.5064 21.4554 21.7594C20.9889 22.0124 20.4748 22.143 19.954 22.1408H6.73411C6.22875 22.1407 5.72985 22.0165 5.27425 21.7774C4.81865 21.5383 4.41797 21.1904 4.1018 20.7593C3.78562 20.3282 3.56202 19.825 3.4475 19.2869C3.33297 18.7487 3.33045 18.1893 3.44011 17.6499L5.09386 9.51189C5.49251 7.55145 6.47908 5.79297 7.89675 4.516C9.31442 3.23902 11.0818 2.51683 12.918 2.46424C14.7542 2.41164 16.5537 3.03166 18.0306 4.22573C19.5075 5.4198 20.5769 7.11938 21.0689 9.05431L23.2064 17.4629C23.3476 18.0107 23.3701 18.587 23.2721 19.146C23.174 19.705 22.9582 20.2313 22.6416 20.6832Z" fill="#929292"/>
</g>
<defs>
<clipPath id="clip0_0_84">
<rect width="26.56" height="29.04" fill="white" transform="scale(1.01657)"/>
</clipPath>
</defs>
</svg>
