<svg width="27" height="30" viewBox="0 0 27 30" fill="none" xmlns="http://www.w3.org/2000/svg">
<g clip-path="url(#clip0_0_81)">
<path d="M21.0519 14.7604H15.7498C15.1531 14.7604 14.5808 14.5012 14.1588 14.0399C13.7369 13.5785 13.4998 12.9528 13.4998 12.3003V6.48714C13.5013 5.92129 13.3838 5.36265 13.1564 4.85438C12.9289 4.34612 12.5976 3.90186 12.1881 3.55594C11.8 3.21991 11.3464 2.98591 10.8625 2.87201C10.3785 2.75812 9.87709 2.76739 9.39693 2.89909C6.66954 3.63935 4.25493 5.37525 2.5524 7.81972C0.849869 10.2642 -0.0385865 13.2708 0.0339596 16.3423C0.106506 19.4139 1.13571 22.3663 2.95136 24.7115C4.76701 27.0566 7.26036 28.6539 10.0191 29.2393C13.1208 29.8884 16.3322 29.2164 18.9955 27.3609C21.6588 25.5054 23.5726 22.6068 24.3448 19.2587C24.4657 18.733 24.4745 18.184 24.3706 17.654C24.2666 17.124 24.0526 16.6273 23.7452 16.202C23.4251 15.7549 23.0164 15.3928 22.5499 15.1431C22.0835 14.8934 21.5713 14.7626 21.0519 14.7604ZM22.1634 18.6572C21.7327 20.5538 20.8489 22.2912 19.6026 23.6918C18.3562 25.0924 16.7919 26.1059 15.0698 26.6286C13.3476 27.1513 11.5294 27.1645 9.80103 26.6669C8.07268 26.1692 6.49625 25.1785 5.23298 23.7961C3.9697 22.4137 3.06492 20.6893 2.61118 18.7992C2.15744 16.909 2.17101 14.921 2.65053 13.0385C3.13004 11.156 4.05828 9.44649 5.34029 8.0849C6.62231 6.7233 8.2121 5.75847 9.94705 5.28907C10.0955 5.24853 10.2505 5.24654 10.3998 5.28328C10.549 5.32002 10.6883 5.39446 10.8066 5.50064C10.9462 5.61701 11.0594 5.76698 11.1374 5.93891C11.2154 6.11084 11.2562 6.30012 11.2566 6.49206V12.3003C11.2566 13.6052 11.7307 14.8567 12.5746 15.7794C13.4185 16.7021 14.5631 17.2205 15.7566 17.2205H21.0576C21.2346 17.2213 21.4092 17.266 21.5683 17.3512C21.7273 17.4364 21.8665 17.56 21.9756 17.7125C22.0712 17.8436 22.1378 17.9971 22.1702 18.1609C22.2026 18.3248 22.1999 18.4947 22.1623 18.6572H22.1634Z" fill="#929292"/>
<path d="M26.6076 9.15907C26.0897 7.07718 25.0835 5.17926 23.6887 3.65311C22.2938 2.12697 20.5587 1.0255 18.655 0.457726C18.4554 0.399064 18.2496 0.369289 18.043 0.369162C17.7457 0.366074 17.4508 0.427427 17.1754 0.549675C16.8999 0.671923 16.6494 0.852642 16.4382 1.08139C16.227 1.31014 16.0593 1.58238 15.9449 1.88239C15.8305 2.18239 15.7716 2.50421 15.7716 2.82925V8.61047C15.7716 9.58915 16.1272 10.5278 16.7601 11.2198C17.3931 11.9118 18.2515 12.3006 19.1466 12.3006H24.4555C24.8027 12.2969 25.1445 12.2058 25.4543 12.0343C25.7642 11.8627 26.0336 11.6154 26.2418 11.3115C26.45 11.0076 26.5913 10.6553 26.6547 10.282C26.7182 9.90872 26.702 9.52445 26.6076 9.15907ZM23.7974 9.84051H19.1421C18.8437 9.84051 18.5576 9.71092 18.3466 9.48024C18.1356 9.24956 18.0171 8.93669 18.0171 8.61047L18.0081 2.83786C18.0163 2.83135 18.0261 2.82752 18.0362 2.82679H18.0655C19.5978 3.28324 20.9939 4.17112 22.1144 5.40182C23.2349 6.63252 24.0405 8.163 24.451 9.84051H23.7974Z" fill="#929292"/>
</g>
<defs>
<clipPath id="clip0_0_81">
<rect width="26.56" height="29.04" fill="white" transform="scale(1.01657)"/>
</clipPath>
</defs>
</svg>
