<svg width="27" height="30" viewBox="0 0 27 30" fill="none" xmlns="http://www.w3.org/2000/svg">
<g clip-path="url(#clip0_0_79)">
<path d="M26.0114 11.1552L17.4783 1.82405C16.4222 0.672714 14.9916 0.0261835 13.5003 0.0261835C12.0089 0.0261835 10.5784 0.672714 9.52226 1.82405L0.989137 11.1552C0.674615 11.4969 0.425253 11.9034 0.255505 12.3513C0.0857563 12.7991 -0.00100102 13.2793 0.000261775 13.7641V25.8395C0.000261775 26.8181 0.355841 27.7567 0.988776 28.4488C1.62171 29.1408 2.48016 29.5296 3.37526 29.5296H23.6253C24.5204 29.5296 25.3788 29.1408 26.0118 28.4488C26.6447 27.7567 27.0003 26.8181 27.0003 25.8395V13.7641C27.0015 13.2793 26.9148 12.7991 26.745 12.3513C26.5753 11.9034 26.3259 11.4969 26.0114 11.1552ZM16.8753 27.0695H10.1253V22.2305C10.1253 21.2518 10.4808 20.3132 11.1138 19.6212C11.7467 18.9291 12.6052 18.5404 13.5003 18.5404C14.3954 18.5404 15.2538 18.9291 15.8868 19.6212C16.5197 20.3132 16.8753 21.2518 16.8753 22.2305V27.0695ZM24.7503 25.8395C24.7503 26.1657 24.6317 26.4786 24.4208 26.7092C24.2098 26.9399 23.9236 27.0695 23.6253 27.0695H19.1253V22.2305C19.1253 20.5994 18.5326 19.035 17.4777 17.8816C16.4228 16.7282 14.9921 16.0803 13.5003 16.0803C12.0084 16.0803 10.5777 16.7282 9.52279 17.8816C8.46789 19.035 7.87526 20.5994 7.87526 22.2305V27.0695H3.37526C3.07689 27.0695 2.79075 26.9399 2.57977 26.7092C2.36879 26.4786 2.25026 26.1657 2.25026 25.8395V13.7641C2.25131 13.4381 2.36972 13.1257 2.57989 12.8945L11.113 3.56702C11.7472 2.87688 12.6055 2.48943 13.5003 2.48943C14.395 2.48943 15.2534 2.87688 15.8875 3.56702L24.4206 12.8981C24.63 13.1285 24.7483 13.4394 24.7503 13.7641V25.8395Z" fill="white"/>
</g>
<defs>
<clipPath id="clip0_0_79">
<rect width="26.56" height="29.04" fill="white" transform="scale(1.01657)"/>
</clipPath>
</defs>
</svg>
